<svg xmlns="http://www.w3.org/2000/svg" width="24" height="24" viewBox="0 0 24 24" stroke-width="2"
	stroke="currentColor" fill="none" stroke-linecap="round" stroke-linejoin="round">
	<path fill="none" opacity="1.000000" stroke="none" d="
M146.000000,257.000000 
	C97.333336,257.000000 49.166672,257.000000 1.000006,257.000000 
	C1.000004,171.666672 1.000004,86.333351 1.000002,1.000018 
	C86.333321,1.000012 171.666641,1.000012 257.000000,1.000006 
	C257.000000,86.333313 257.000000,171.666626 257.000000,256.999969 
	C220.166672,257.000000 183.333328,257.000000 146.000000,257.000000 
M97.770248,23.054535 
	C83.117401,30.085917 71.480537,40.440052 64.492661,55.199005 
	C58.613380,67.616524 56.199894,80.648170 57.807194,94.704163 
	C60.164600,115.319954 69.116051,131.587234 85.998344,143.513016 
	C102.289032,155.020859 120.284348,158.990738 140.030487,156.071793 
	C158.072708,153.404724 173.235992,145.806839 184.901917,131.614288 
	C198.774933,114.736641 203.563492,95.110901 199.729813,74.077400 
	C195.430099,50.486935 182.161301,32.930542 159.625687,23.262922 
	C139.329102,14.555842 118.944092,14.720149 97.770248,23.054535 
M187.041245,243.769150 
	C187.477188,244.163071 187.911057,244.898239 188.349411,244.900925 
	C198.811111,244.965210 209.273315,244.950912 219.793900,244.950912 
	C213.011795,202.482727 178.687363,173.973587 136.551575,171.159622 
	C83.580849,167.622086 44.955254,201.503342 38.167011,244.702698 
	C48.951813,244.702698 59.695534,244.702698 70.627518,244.702698 
	C73.225037,235.341614 77.659340,226.695724 84.679382,219.996933 
	C103.474426,202.062057 125.821045,198.127853 150.145325,205.721512 
	C168.751312,211.530014 180.671783,224.594147 187.041245,243.769150 
z" />
	<path fill="#7638F8" opacity="1.000000" stroke="none" d="
M98.158905,23.023289 
	C118.944092,14.720149 139.329102,14.555842 159.625687,23.262922 
	C182.161301,32.930542 195.430099,50.486935 199.729813,74.077400 
	C203.563492,95.110901 198.774933,114.736641 184.901917,131.614288 
	C173.235992,145.806839 158.072708,153.404724 140.030487,156.071793 
	C120.284348,158.990738 102.289032,155.020859 85.998344,143.513016 
	C69.116051,131.587234 60.164600,115.319954 57.807194,94.704163 
	C56.199894,80.648170 58.613380,67.616524 64.492661,55.199005 
	C71.480537,40.440052 83.117401,30.085917 98.158905,23.023289 
M98.979012,57.537064 
	C90.497574,68.096291 86.976219,79.771149 88.810738,93.530655 
	C90.443626,105.777893 96.245483,114.924965 105.861038,121.905968 
	C113.981323,127.801407 123.464386,128.501556 133.163361,128.024429 
	C146.395325,127.373482 156.237717,120.829468 163.259277,110.142082 
	C169.088135,101.270103 170.745346,91.422043 169.168350,80.667831 
	C167.568375,69.756950 163.197311,61.053627 154.630371,53.990303 
	C139.194107,41.263306 113.716591,42.671192 98.979012,57.537064 
z" />
	<path fill="#7638F8" opacity="1.000000" stroke="none" d="
M186.993317,243.347504 
	C180.671783,224.594147 168.751312,211.530014 150.145325,205.721512 
	C125.821045,198.127853 103.474426,202.062057 84.679382,219.996933 
	C77.659340,226.695724 73.225037,235.341614 70.627518,244.702698 
	C59.695534,244.702698 48.951813,244.702698 38.167011,244.702698 
	C44.955254,201.503342 83.580849,167.622086 136.551575,171.159622 
	C178.687363,173.973587 213.011795,202.482727 219.793900,244.950912 
	C209.273315,244.950912 198.811111,244.965210 188.349411,244.900925 
	C187.911057,244.898239 187.477188,244.163071 186.993317,243.347504 
z" />
	<path fill="#FFFFFF" opacity="1.000000" stroke="none" d="
M99.230003,57.276123 
	C113.716591,42.671192 139.194107,41.263306 154.630371,53.990303 
	C163.197311,61.053627 167.568375,69.756950 169.168350,80.667831 
	C170.745346,91.422043 169.088135,101.270103 163.259277,110.142082 
	C156.237717,120.829468 146.395325,127.373482 133.163361,128.024429 
	C123.464386,128.501556 113.981323,127.801407 105.861038,121.905968 
	C96.245483,114.924965 90.443626,105.777893 88.810738,93.530655 
	C86.976219,79.771149 90.497574,68.096291 99.230003,57.276123 
z" />
</svg>